<svg width="24" height="24" viewBox="0 0 24 24" fill="#222327" xmlns="http://www.w3.org/2000/svg">
    <path d="M4.5 2C3.11929 2 2 3.11929 2 4.5V19.4984C2 20.8791 3.11929 21.9984 4.5 21.9984H11.0547C12.4354 21.9984 13.5547 20.8791 13.5547 19.4984V18.332C13.5547 18.0559 13.3308 17.832 13.0547 17.832C12.7785 17.832 12.5547 18.0559 12.5547 18.332V19.4984C12.5547 20.3268 11.8831 20.9984 11.0547 20.9984H4.5C3.67157 20.9984 3 20.3268 3 19.4984V4.5C3 3.67157 3.67157 3 4.5 3H11.0547C11.8831 3 12.5547 3.67157 12.5547 4.5V5.6664C12.5547 5.94254 12.7785 6.1664 13.0547 6.1664C13.3308 6.1664 13.5547 5.94254 13.5547 5.6664V4.5C13.5547 3.11929 12.4354 2 11.0547 2H4.5Z"/>
    <path d="M16.5745 6.36815C16.3792 6.17288 16.0626 6.17288 15.8674 6.36815C15.6721 6.56341 15.6721 6.87999 15.8674 7.07525L20.2912 11.499H8.83267C8.55653 11.499 8.33267 11.7229 8.33267 11.999C8.33267 12.2752 8.55653 12.499 8.83267 12.499H20.2912L15.8674 16.9228C15.6721 17.1181 15.6721 17.4347 15.8674 17.6299C16.0626 17.8252 16.3792 17.8252 16.5745 17.6299L21.8518 12.3526C22.0471 12.1573 22.0471 11.8407 21.8518 11.6455L16.5745 6.36815Z"/>
</svg>
